<svg version="1.1" preserveAspectRatio="none" xmlns="http://www.w3.org/2000/svg" width="500" height="500" viewBox="0 0 500 500"><rect width="100%" height="100%" fill="#FFFFFF" fill-opacity="1"/><svg viewBox="-69.3528 47.9018 343.1501 79" width="333" height="76.66324445191769" x="83.5px" y="211.6684px" xmlns="http://www.w3.org/2000/svg" xmlns:xlink="http://www.w3.org/1999/xlink" preserveAspectRatio="none"><defs></defs><style>.companyName {fill:#0C0C0C;fill-opacity:1;}.icon3-str {stroke:#929292;stroke-opacity:1;}.text {fill:#0C0C0C;fill-opacity:1;}</style><g opacity="1" transform="rotate(0 45.2675 111.9018)">
<svg width="113.9095" height="15" x="45.2675" y="111.9018" version="1.1" preserveAspectRatio="none" viewBox="2.8 -29.4 227.76 30">
  <g transform="matrix(1 0 0 1 0 0)" class="text"><path id="id-6izo4zJp9" d="M5.74 0L2.80 0L2.80-28.80L24.86-28.80L24.86 0L21.92 0L21.92-25.98L5.74-25.98L5.74 0Z M52.36 0L32.46 0L32.46-2.70L43.98-14.40L32.46-26.06L32.46-28.80L52.86-28.80L52.86-25.98L36.60-25.98L47.72-14.74L47.72-14.06L36.60-2.82L52.36-2.82L52.36 0Z M80.36 0L60.46 0L60.46-2.70L71.98-14.40L60.46-26.06L60.46-28.80L80.86-28.80L80.86-25.98L64.60-25.98L75.72-14.74L75.72-14.06L64.60-2.82L80.36-2.82L80.36 0Z M97.20 0L88.46 0L88.46-28.80L97.20-28.80Q97.66-28.80 98.77-28.78Q99.88-28.76 100.90-28.62L100.90-28.62Q104.18-28.16 106.38-26.18Q108.58-24.20 109.68-21.14Q110.78-18.08 110.78-14.40L110.78-14.40Q110.78-10.72 109.68-7.66Q108.58-4.60 106.38-2.62Q104.18-0.64 100.90-0.18L100.90-0.18Q99.90-0.06 98.76-0.03Q97.62 0 97.20 0L97.20 0ZM91.50-25.98L91.50-2.82L97.20-2.82Q98.02-2.82 98.97-2.87Q99.92-2.92 100.60-3.06L100.60-3.06Q103.12-3.50 104.67-5.10Q106.22-6.70 106.94-9.11Q107.66-11.52 107.66-14.40L107.66-14.40Q107.66-17.30 106.94-19.72Q106.22-22.14 104.66-23.72Q103.10-25.30 100.60-25.74L100.60-25.74Q99.92-25.88 98.95-25.93Q97.98-25.98 97.20-25.98L97.20-25.98L91.50-25.98Z M125.94 0L122.98 0L122.98-12.06L113.32-28.80L116.72-28.80L124.46-15.42L132.16-28.80L135.56-28.80L125.94-12.06L125.94 0Z M171.76-12.94L149.62-12.94L149.62-15.86L171.76-15.86L171.76-12.94ZM160.42 0.60L160.42 0.60Q156.12 0.60 153.16-1.31Q150.20-3.22 148.68-6.60Q147.16-9.98 147.16-14.40L147.16-14.40Q147.16-18.82 148.68-22.20Q150.20-25.58 153.16-27.49Q156.12-29.40 160.42-29.40L160.42-29.40Q164.74-29.40 167.69-27.49Q170.64-25.58 172.17-22.20Q173.70-18.82 173.70-14.40L173.70-14.40Q173.70-9.98 172.17-6.60Q170.64-3.22 167.69-1.31Q164.74 0.60 160.42 0.60ZM160.42-2.22L160.42-2.22Q163.80-2.22 166.06-3.76Q168.32-5.30 169.45-8.05Q170.58-10.80 170.58-14.40L170.58-14.40Q170.58-18 169.45-20.74Q168.32-23.48 166.06-25.02Q163.80-26.56 160.42-26.58L160.42-26.58Q157.04-26.58 154.80-25.04Q152.56-23.50 151.43-20.75Q150.30-18 150.28-14.40L150.28-14.40Q150.26-10.80 151.39-8.07Q152.52-5.34 154.78-3.79Q157.04-2.24 160.42-2.22Z M183.44 0L180.50 0L180.50-28.80L202.56-28.80L202.56 0L199.62 0L199.62-25.98L183.44-25.98L183.44 0Z M230.06 0L210.16 0L210.16-2.70L221.68-14.40L210.16-26.06L210.16-28.80L230.56-28.80L230.56-25.98L214.30-25.98L225.42-14.74L225.42-14.06L214.30-2.82L230.06-2.82L230.06 0Z"/></g>
</svg>
</g><g opacity="1" transform="rotate(0 -69.3528 47.9018)">
<svg width="343.1501" height="50" x="-69.3528" y="47.9018" version="1.1" preserveAspectRatio="none" viewBox="4 -35.2 274.52 40">
  <g transform="matrix(1 0 0 1 0 0)" class="companyName"><path id="id-D6z1nYkh7" d="M4 4.80L36 4.80L36-35.20L4-35.20ZM20-16.84L7.28-33.20L32.72-33.20ZM21.28-15.20L34-31.56L34 1.16ZM7.28 2.80L20-13.56L32.72 2.80ZM6-31.56L18.72-15.20L6 1.16Z M71-32.60C69.36-30.80 66.32-27.60 60.52-21.80C56.88-24.76 54.52-26.76 49.08-31.52L47.04-29.56C49.64-27.36 52.64-24.68 58.92-19.20L58.92-0.28L61.88-0.28L61.88-19.20L73.20-30.48Z M117.80-27.88L117.80-30.60L82.32-30.60L82.32-27.88L92.08-27.88C91.08-23.20 89.60-17.40 88.48-13.80L110.20-13.80C109.16-5.16 108.08-1.28 106.68-0.12C106.16 0.32 105.56 0.36 104.64 0.36C103.48 0.36 100.64 0.32 97.72 0.04C98.28 0.88 98.72 2.12 98.76 3C101.52 3.16 104.20 3.24 105.60 3.16C107.24 3.08 108.24 2.80 109.20 1.80C111.04 0.12 112.20-4.36 113.44-15.12C113.52-15.52 113.56-16.52 113.56-16.52L92.52-16.52C93.40-19.92 94.48-24.20 95.28-27.88Z M154.48-29.36L125.84-29.36L125.84-26.32L138.68-26.32L138.68 0.96L141.72 0.96L141.72-26.32L154.48-26.32Z M175.24-20.56C177.92-17.08 181.16-12.40 182.72-9.48L185.40-11.04C183.76-13.88 180.52-18.44 177.76-21.88ZM171.24-27.92L188.88-27.92L188.88-3.08L171.24-3.08ZM168.24-30.92L168.24-0.12L192-0.12L192-30.92Z M210.36-20.28L210.36-28.60L231.28-28.60L231.28-18.84L210.36-18.84ZM234.32-15.92L234.32-31.52L207.28-31.52L207.28-20.32C207.28-13.76 206.76-5.04 201.48 1.12C202.20 1.52 203.44 2.64 203.96 3.24C208.44-2.04 209.84-9.56 210.24-15.92L220.60-15.92C223.08-6.64 227.84 0 236.08 3C236.52 2.16 237.40 0.92 238.16 0.32C230.48-2.08 225.84-8 223.60-15.92Z M263.80-0.80C261.28-0.80 260.80-1.28 260.80-3.36L260.80-13.40L277.80-14.68L277.52-17.44L260.80-16.24L260.80-27.44C265.76-28.16 270.32-29.04 273.96-30.08L272.28-32.76C265.64-30.72 253.92-29.24 244.16-28.48C244.44-27.72 244.88-26.60 244.96-25.80C249-26.08 253.44-26.52 257.76-27.08L257.76-16L242.48-14.92L242.76-11.96L257.76-13.16L257.76-3.40C257.76 0.92 259.08 2.08 263.68 2.08L272.72 2.08C277.04 2.08 278.04 0.16 278.52-5.80C277.60-6 276.40-6.52 275.60-7.08C275.32-2 274.92-0.80 272.60-0.80Z"/></g>
</svg>
</g></svg></svg>