<svg version="1.1" preserveAspectRatio="none" xmlns="http://www.w3.org/2000/svg" width="500" height="500" viewBox="0 0 500 500"><rect width="100%" height="100%" fill="#101010" fill-opacity="1"/><svg viewBox="-13.0147 127.7848 343.1126 87" width="333" height="84.43583826417334" x="83.5px" y="207.7821px" xmlns="http://www.w3.org/2000/svg" xmlns:xlink="http://www.w3.org/1999/xlink" preserveAspectRatio="none"><defs></defs><style>.companyName {fill:#EFEFEF;fill-opacity:1;}.icon1 {fill:#EFEFEF;fill-opacity:1;}.icon3-str {stroke:#C0C0C0;stroke-opacity:1;}</style><g opacity="1" transform="rotate(0 89.6003 199.7848)">
<svg width="137.8826" height="15" x="89.6003" y="199.7848" version="1.1" preserveAspectRatio="none" viewBox="2.8 -29.4 275.76 30">
  <g transform="matrix(1 0 0 1 0 0)" class="icon1"><path id="id-6izo4zJp9" d="M5.74 0L2.80 0L2.80-28.80L24.86-28.80L24.86 0L21.92 0L21.92-25.98L5.74-25.98L5.74 0Z M58.36 0L38.46 0L38.46-2.70L49.98-14.40L38.46-26.06L38.46-28.80L58.86-28.80L58.86-25.98L42.60-25.98L53.72-14.74L53.72-14.06L42.60-2.82L58.36-2.82L58.36 0Z M92.36 0L72.46 0L72.46-2.70L83.98-14.40L72.46-26.06L72.46-28.80L92.86-28.80L92.86-25.98L76.60-25.98L87.72-14.74L87.72-14.06L76.60-2.82L92.36-2.82L92.36 0Z M115.20 0L106.46 0L106.46-28.80L115.20-28.80Q115.66-28.80 116.77-28.78Q117.88-28.76 118.90-28.62L118.90-28.62Q122.18-28.16 124.38-26.18Q126.58-24.20 127.68-21.14Q128.78-18.08 128.78-14.40L128.78-14.40Q128.78-10.72 127.68-7.66Q126.58-4.60 124.38-2.62Q122.18-0.64 118.90-0.18L118.90-0.18Q117.90-0.06 116.76-0.03Q115.62 0 115.20 0L115.20 0ZM109.50-25.98L109.50-2.82L115.20-2.82Q116.02-2.82 116.97-2.87Q117.92-2.92 118.60-3.06L118.60-3.06Q121.12-3.50 122.67-5.10Q124.22-6.70 124.94-9.11Q125.66-11.52 125.66-14.40L125.66-14.40Q125.66-17.30 124.94-19.72Q124.22-22.14 122.66-23.72Q121.10-25.30 118.60-25.74L118.60-25.74Q117.92-25.88 116.95-25.93Q115.98-25.98 115.20-25.98L115.20-25.98L109.50-25.98Z M149.94 0L146.98 0L146.98-12.06L137.32-28.80L140.72-28.80L148.46-15.42L156.16-28.80L159.56-28.80L149.94-12.06L149.94 0Z M207.76-12.94L185.62-12.94L185.62-15.86L207.76-15.86L207.76-12.94ZM196.42 0.60L196.42 0.60Q192.12 0.60 189.16-1.31Q186.20-3.22 184.68-6.60Q183.16-9.98 183.16-14.40L183.16-14.40Q183.16-18.82 184.68-22.20Q186.20-25.58 189.16-27.49Q192.12-29.40 196.42-29.40L196.42-29.40Q200.74-29.40 203.69-27.49Q206.64-25.58 208.17-22.20Q209.70-18.82 209.70-14.40L209.70-14.40Q209.70-9.98 208.17-6.60Q206.64-3.22 203.69-1.31Q200.74 0.60 196.42 0.60ZM196.42-2.22L196.42-2.22Q199.80-2.22 202.06-3.76Q204.32-5.30 205.45-8.05Q206.58-10.80 206.58-14.40L206.58-14.40Q206.58-18 205.45-20.74Q204.32-23.48 202.06-25.02Q199.80-26.56 196.42-26.58L196.42-26.58Q193.04-26.58 190.80-25.04Q188.56-23.50 187.43-20.75Q186.30-18 186.28-14.40L186.28-14.40Q186.26-10.80 187.39-8.07Q188.52-5.34 190.78-3.79Q193.04-2.24 196.42-2.22Z M225.44 0L222.50 0L222.50-28.80L244.56-28.80L244.56 0L241.62 0L241.62-25.98L225.44-25.98L225.44 0Z M278.06 0L258.16 0L258.16-2.70L269.68-14.40L258.16-26.06L258.16-28.80L278.56-28.80L278.56-25.98L262.30-25.98L273.42-14.74L273.42-14.06L262.30-2.82L278.06-2.82L278.06 0Z"/></g>
</svg>
</g><g opacity="1" transform="rotate(0 -13.0147 127.7848)">
<svg width="343.1126" height="50" x="-13.0147" y="127.7848" version="1.1" preserveAspectRatio="none" viewBox="4 -35.2 274.52 40">
  <g transform="matrix(1 0 0 1 0 0)" class="companyName"><path id="id-D6z1nYkh7" d="M4 4.80L36 4.80L36-35.20L4-35.20ZM20-16.84L7.28-33.20L32.72-33.20ZM21.28-15.20L34-31.56L34 1.16ZM7.28 2.80L20-13.56L32.72 2.80ZM6-31.56L18.72-15.20L6 1.16Z M71-32.60C69.36-30.80 66.32-27.60 60.52-21.80C56.88-24.76 54.52-26.76 49.08-31.52L47.04-29.56C49.64-27.36 52.64-24.68 58.92-19.20L58.92-0.28L61.88-0.28L61.88-19.20L73.20-30.48Z M117.80-27.88L117.80-30.60L82.32-30.60L82.32-27.88L92.08-27.88C91.08-23.20 89.60-17.40 88.48-13.80L110.20-13.80C109.16-5.16 108.08-1.28 106.68-0.12C106.16 0.32 105.56 0.36 104.64 0.36C103.48 0.36 100.64 0.32 97.72 0.04C98.28 0.88 98.72 2.12 98.76 3C101.52 3.16 104.20 3.24 105.60 3.16C107.24 3.08 108.24 2.80 109.20 1.80C111.04 0.12 112.20-4.36 113.44-15.12C113.52-15.52 113.56-16.52 113.56-16.52L92.52-16.52C93.40-19.92 94.48-24.20 95.28-27.88Z M154.48-29.36L125.84-29.36L125.84-26.32L138.68-26.32L138.68 0.96L141.72 0.96L141.72-26.32L154.48-26.32Z M175.24-20.56C177.92-17.08 181.16-12.40 182.72-9.48L185.40-11.04C183.76-13.88 180.52-18.44 177.76-21.88ZM171.24-27.92L188.88-27.92L188.88-3.08L171.24-3.08ZM168.24-30.92L168.24-0.12L192-0.12L192-30.92Z M210.36-20.28L210.36-28.60L231.28-28.60L231.28-18.84L210.36-18.84ZM234.32-15.92L234.32-31.52L207.28-31.52L207.28-20.32C207.28-13.76 206.76-5.04 201.48 1.12C202.20 1.52 203.44 2.64 203.96 3.24C208.44-2.04 209.84-9.56 210.24-15.92L220.60-15.92C223.08-6.64 227.84 0 236.08 3C236.52 2.16 237.40 0.92 238.16 0.32C230.48-2.08 225.84-8 223.60-15.92Z M263.80-0.80C261.28-0.80 260.80-1.28 260.80-3.36L260.80-13.40L277.80-14.68L277.52-17.44L260.80-16.24L260.80-27.44C265.76-28.16 270.32-29.04 273.96-30.08L272.28-32.76C265.64-30.72 253.92-29.24 244.16-28.48C244.44-27.72 244.88-26.60 244.96-25.80C249-26.08 253.44-26.52 257.76-27.08L257.76-16L242.48-14.92L242.76-11.96L257.76-13.16L257.76-3.40C257.76 0.92 259.08 2.08 263.68 2.08L272.72 2.08C277.04 2.08 278.04 0.16 278.52-5.80C277.60-6 276.40-6.52 275.60-7.08C275.32-2 274.92-0.80 272.60-0.80Z"/></g>
</svg>
</g></svg></svg>