<svg version="1.1" preserveAspectRatio="none" xmlns="http://www.w3.org/2000/svg" width="500" height="500" viewBox="0 0 500 500"><rect width="100%" height="100%" fill="#FBE7E7" fill-opacity="1"/><svg viewBox="60.7248 181.4752 343.1507 84" width="333" height="81.51520600132828" x="83.5px" y="209.2424px" xmlns="http://www.w3.org/2000/svg" xmlns:xlink="http://www.w3.org/1999/xlink" preserveAspectRatio="none"><defs></defs><style>.a6izo4zJpstrokeColor-str {stroke:#AE9250;stroke-opacity:1;}.companyName {fill:#CAB58D;fill-opacity:1;}.icon3-str {stroke:#947327;stroke-opacity:1;}.text {fill:#947327;fill-opacity:1;}</style><g opacity="1" transform="rotate(0 164.8996 247.4752)">
<svg width="134.8011" height="18" x="164.8996" y="247.4752" version="1.1" preserveAspectRatio="none" viewBox="2.8 -29.4 224.56 30">
  <g transform="matrix(1 0 0 1 0 0)" class="text"><path id="id-6izo4zJp9" d="M5.74 0L2.80 0L2.80-28.80L24.86-28.80L24.86 0L21.92 0L21.92-25.98L5.74-25.98L5.74 0Z M51.96 0L32.06 0L32.06-2.70L43.58-14.40L32.06-26.06L32.06-28.80L52.46-28.80L52.46-25.98L36.20-25.98L47.32-14.74L47.32-14.06L36.20-2.82L51.96-2.82L51.96 0Z M79.56 0L59.66 0L59.66-2.70L71.18-14.40L59.66-26.06L59.66-28.80L80.06-28.80L80.06-25.98L63.80-25.98L74.92-14.74L74.92-14.06L63.80-2.82L79.56-2.82L79.56 0Z M96.00 0L87.26 0L87.26-28.80L96.00-28.80Q96.46-28.80 97.57-28.78Q98.68-28.76 99.70-28.62L99.70-28.62Q102.98-28.16 105.18-26.18Q107.38-24.20 108.48-21.14Q109.58-18.08 109.58-14.40L109.58-14.40Q109.58-10.72 108.48-7.66Q107.38-4.60 105.18-2.62Q102.98-0.64 99.70-0.18L99.70-0.18Q98.70-0.06 97.56-0.03Q96.42 0 96.00 0L96.00 0ZM90.30-25.98L90.30-2.82L96.00-2.82Q96.82-2.82 97.77-2.87Q98.72-2.92 99.40-3.06L99.40-3.06Q101.92-3.50 103.47-5.10Q105.02-6.70 105.74-9.11Q106.46-11.52 106.46-14.40L106.46-14.40Q106.46-17.30 105.74-19.72Q105.02-22.14 103.46-23.72Q101.90-25.30 99.40-25.74L99.40-25.74Q98.72-25.88 97.75-25.93Q96.78-25.98 96.00-25.98L96.00-25.98L90.30-25.98Z M124.34 0L121.38 0L121.38-12.06L111.72-28.80L115.12-28.80L122.86-15.42L130.56-28.80L133.96-28.80L124.34-12.06L124.34 0Z M169.36-12.94L147.22-12.94L147.22-15.86L169.36-15.86L169.36-12.94ZM158.02 0.60L158.02 0.60Q153.72 0.60 150.76-1.31Q147.80-3.22 146.28-6.60Q144.76-9.98 144.76-14.40L144.76-14.40Q144.76-18.82 146.28-22.20Q147.80-25.58 150.76-27.49Q153.72-29.40 158.02-29.40L158.02-29.40Q162.34-29.40 165.29-27.49Q168.24-25.58 169.77-22.20Q171.30-18.82 171.30-14.40L171.30-14.40Q171.30-9.98 169.77-6.60Q168.24-3.22 165.29-1.31Q162.34 0.60 158.02 0.60ZM158.02-2.22L158.02-2.22Q161.40-2.22 163.66-3.76Q165.92-5.30 167.05-8.05Q168.18-10.80 168.18-14.40L168.18-14.40Q168.18-18 167.05-20.74Q165.92-23.48 163.66-25.02Q161.40-26.56 158.02-26.58L158.02-26.58Q154.64-26.58 152.40-25.04Q150.16-23.50 149.03-20.75Q147.90-18 147.88-14.40L147.88-14.40Q147.86-10.80 148.99-8.07Q150.12-5.34 152.38-3.79Q154.64-2.24 158.02-2.22Z M180.64 0L177.70 0L177.70-28.80L199.76-28.80L199.76 0L196.82 0L196.82-25.98L180.64-25.98L180.64 0Z M226.86 0L206.96 0L206.96-2.70L218.48-14.40L206.96-26.06L206.96-28.80L227.36-28.80L227.36-25.98L211.10-25.98L222.22-14.74L222.22-14.06L211.10-2.82L226.86-2.82L226.86 0Z"/></g>
</svg>
</g><g opacity="1" transform="rotate(0 60.7248 181.4752)">
<svg width="343.1507" height="50" x="60.7248" y="181.4752" version="1.1" preserveAspectRatio="none" viewBox="4 -35.2 274.52 40">
  <g transform="matrix(1 0 0 1 0 0)" class="companyName"><defs><path id="id-D6z1nYkh7" d="M4 4.80L36 4.80L36-35.20L4-35.20ZM20-16.84L7.28-33.20L32.72-33.20ZM21.28-15.20L34-31.56L34 1.16ZM7.28 2.80L20-13.56L32.72 2.80ZM6-31.56L18.72-15.20L6 1.16Z M71-32.60C69.36-30.80 66.32-27.60 60.52-21.80C56.88-24.76 54.52-26.76 49.08-31.52L47.04-29.56C49.64-27.36 52.64-24.68 58.92-19.20L58.92-0.28L61.88-0.28L61.88-19.20L73.20-30.48Z M117.80-27.88L117.80-30.60L82.32-30.60L82.32-27.88L92.08-27.88C91.08-23.20 89.60-17.40 88.48-13.80L110.20-13.80C109.16-5.16 108.08-1.28 106.68-0.12C106.16 0.32 105.56 0.36 104.64 0.36C103.48 0.36 100.64 0.32 97.72 0.04C98.28 0.88 98.72 2.12 98.76 3C101.52 3.16 104.20 3.24 105.60 3.16C107.24 3.08 108.24 2.80 109.20 1.80C111.04 0.12 112.20-4.36 113.44-15.12C113.52-15.52 113.56-16.52 113.56-16.52L92.52-16.52C93.40-19.92 94.48-24.20 95.28-27.88Z M154.48-29.36L125.84-29.36L125.84-26.32L138.68-26.32L138.68 0.96L141.72 0.96L141.72-26.32L154.48-26.32Z M175.24-20.56C177.92-17.08 181.16-12.40 182.72-9.48L185.40-11.04C183.76-13.88 180.52-18.44 177.76-21.88ZM171.24-27.92L188.88-27.92L188.88-3.08L171.24-3.08ZM168.24-30.92L168.24-0.12L192-0.12L192-30.92Z M210.36-20.28L210.36-28.60L231.28-28.60L231.28-18.84L210.36-18.84ZM234.32-15.92L234.32-31.52L207.28-31.52L207.28-20.32C207.28-13.76 206.76-5.04 201.48 1.12C202.20 1.52 203.44 2.64 203.96 3.24C208.44-2.04 209.84-9.56 210.24-15.92L220.60-15.92C223.08-6.64 227.84 0 236.08 3C236.52 2.16 237.40 0.92 238.16 0.32C230.48-2.08 225.84-8 223.60-15.92Z M263.80-0.80C261.28-0.80 260.80-1.28 260.80-3.36L260.80-13.40L277.80-14.68L277.52-17.44L260.80-16.24L260.80-27.44C265.76-28.16 270.32-29.04 273.96-30.08L272.28-32.76C265.64-30.72 253.92-29.24 244.16-28.48C244.44-27.72 244.88-26.60 244.96-25.80C249-26.08 253.44-26.52 257.76-27.08L257.76-16L242.48-14.92L242.76-11.96L257.76-13.16L257.76-3.40C257.76 0.92 259.08 2.08 263.68 2.08L272.72 2.08C277.04 2.08 278.04 0.16 278.52-5.80C277.60-6 276.40-6.52 275.60-7.08C275.32-2 274.92-0.80 272.60-0.80Z"/></defs>
  <clipPath id="id-D6z1nYkh7-clip"><use xlink:href="#id-D6z1nYkh7" /></clipPath>
  <g clip-path="url(#id-D6z1nYkh7-clip)"><use xlink:href="#id-D6z1nYkh7" class="icon3-str" style="stroke-width:4;"/></g>
  </g>
</svg>
</g></svg></svg>