<svg version="1.1" preserveAspectRatio="none" xmlns="http://www.w3.org/2000/svg" width="500" height="500" viewBox="0 0 500 500"><rect width="100%" height="100%" fill="#F5F1EE" fill-opacity="1"/><svg viewBox="57.4658 36.8898 343.1535 332" width="333" height="322.1765186716732" x="83.5px" y="88.9117px" xmlns="http://www.w3.org/2000/svg" xmlns:xlink="http://www.w3.org/1999/xlink" preserveAspectRatio="none"><defs></defs><style>.companyName {fill:#9D5D35;fill-opacity:1;}.icon1 {fill:#D6C4B0;fill-opacity:1;}.icon2 {fill:#5D949E;fill-opacity:1;}.icon3 {fill:#958868;fill-opacity:1;}.icon3-str {stroke:#958868;stroke-opacity:1;}.text {fill:#958868;fill-opacity:1;}</style><g opacity="1" transform="rotate(0 123.4839 36.8898)">
<svg width="211.1173" height="200" x="123.4839" y="36.8898" version="1.1" preserveAspectRatio="none" viewBox="10.649999618530273 12.18105411529541 76.54999542236328 72.51895141601562">
  <g transform="matrix(1 0 0 1 0 0)" class="icon1"><path d="M22.6,81.8c1.8,1.8,4.3,2.9,6.9,2.9s5.1-1,6.9-2.9l23.9-23.9c1.7-1.7,2.7-4,2.7-6.5s-1-4.8-2.7-6.5l-4.8-4.8  c4-4.1,10.9-8.4,17-12.3c9-5.6,14.4-9.2,14.7-12.4c0-0.6-0.1-1.6-1.1-2.4c-0.7-0.6-1.6-0.9-2.7-0.8c-6.1,0.5-18,13.1-29.4,26.4  l-3.8-3.8c-1.7-1.7-4-2.7-6.5-2.7s-4.8,1-6.5,2.7L13.5,58.8c-3.8,3.8-3.8,10,0,13.8L22.6,81.8z M83.7,14.2c0.1,0,0.1,0,0.2,0  c0.4,0,0.7,0.1,1,0.3c0.3,0.3,0.4,0.5,0.4,0.7c-0.2,2.3-7.4,6.9-13.7,10.9c-2.8,1.8-5.7,3.6-8.5,5.5C70.8,23,79.4,14.6,83.7,14.2z   M14.9,60.2l23.9-23.9c1.4-1.4,3.2-2.1,5.1-2.1s3.7,0.7,5.1,2.1l3.9,3.9c-0.6,0.8-1.3,1.5-1.9,2.3c-1.7-0.9-3.9-0.7-5.4,0.8  c-0.9,0.9-1.3,2-1.3,3.2s0.5,2.4,1.3,3.2c0.9,0.9,2,1.3,3.2,1.3s2.4-0.5,3.2-1.3c0.9-0.9,1.3-2,1.3-3.2c0-1-0.3-2-0.9-2.7  c0.6-0.7,1.2-1.4,1.8-2.1l4.7,4.7c2.8,2.8,2.8,7.4,0,10.2L35,80.3c-1.5,1.5-3.4,2.3-5.5,2.3s-4-0.8-5.5-2.3l-9.2-9.2  c-1.5-1.5-2.3-3.4-2.3-5.5S13.4,61.7,14.9,60.2z M48.1,47.2c0.2,0.2,0.4,0.2,0.6,0.2c0.3,0,0.6-0.1,0.8-0.4l1.5-1.8  c0.2,0.4,0.3,0.7,0.3,1.2c0,0.7-0.3,1.3-0.8,1.8c-1,1-2.7,1-3.7,0c-0.5-0.5-0.8-1.1-0.8-1.8s0.3-1.3,0.8-1.8  c0.7-0.7,1.7-0.9,2.6-0.6L48,45.8C47.6,46.2,47.7,46.9,48.1,47.2z"></path></g>
</svg>
</g><g opacity="1" transform="rotate(0 152.0728 348.8898)">
<svg width="153.9396" height="20" x="152.0728" y="348.8898" version="1.1" preserveAspectRatio="none" viewBox="2.8 -29.4 230.96 30">
  <g transform="matrix(1 0 0 1 0 0)" class="text"><path id="id-6izo4zJp9" d="M5.74 0L2.80 0L2.80-28.80L24.86-28.80L24.86 0L21.92 0L21.92-25.98L5.74-25.98L5.74 0Z M52.76 0L32.86 0L32.86-2.70L44.38-14.40L32.86-26.06L32.86-28.80L53.26-28.80L53.26-25.98L37-25.98L48.12-14.74L48.12-14.06L37-2.82L52.76-2.82L52.76 0Z M81.16 0L61.26 0L61.26-2.70L72.78-14.40L61.26-26.06L61.26-28.80L81.66-28.80L81.66-25.98L65.40-25.98L76.52-14.74L76.52-14.06L65.40-2.82L81.16-2.82L81.16 0Z M98.40 0L89.66 0L89.66-28.80L98.40-28.80Q98.86-28.80 99.97-28.78Q101.08-28.76 102.10-28.62L102.10-28.62Q105.38-28.16 107.58-26.18Q109.78-24.20 110.88-21.14Q111.98-18.08 111.98-14.40L111.98-14.40Q111.98-10.72 110.88-7.66Q109.78-4.60 107.58-2.62Q105.38-0.64 102.10-0.18L102.10-0.18Q101.10-0.06 99.96-0.03Q98.82 0 98.40 0L98.40 0ZM92.70-25.98L92.70-2.82L98.40-2.82Q99.22-2.82 100.17-2.87Q101.12-2.92 101.80-3.06L101.80-3.06Q104.32-3.50 105.87-5.10Q107.42-6.70 108.14-9.11Q108.86-11.52 108.86-14.40L108.86-14.40Q108.86-17.30 108.14-19.72Q107.42-22.14 105.86-23.72Q104.30-25.30 101.80-25.74L101.80-25.74Q101.12-25.88 100.15-25.93Q99.18-25.98 98.40-25.98L98.40-25.98L92.70-25.98Z M127.54 0L124.58 0L124.58-12.06L114.92-28.80L118.32-28.80L126.06-15.42L133.76-28.80L137.16-28.80L127.54-12.06L127.54 0Z M174.16-12.94L152.02-12.94L152.02-15.86L174.16-15.86L174.16-12.94ZM162.82 0.60L162.82 0.60Q158.52 0.60 155.56-1.31Q152.60-3.22 151.08-6.60Q149.56-9.98 149.56-14.40L149.56-14.40Q149.56-18.82 151.08-22.20Q152.60-25.58 155.56-27.49Q158.52-29.40 162.82-29.40L162.82-29.40Q167.14-29.40 170.09-27.49Q173.04-25.58 174.57-22.20Q176.10-18.82 176.10-14.40L176.10-14.40Q176.10-9.98 174.57-6.60Q173.04-3.22 170.09-1.31Q167.14 0.60 162.82 0.60ZM162.82-2.22L162.82-2.22Q166.20-2.22 168.46-3.76Q170.72-5.30 171.85-8.05Q172.98-10.80 172.98-14.40L172.98-14.40Q172.98-18 171.85-20.74Q170.72-23.48 168.46-25.02Q166.20-26.56 162.82-26.58L162.82-26.58Q159.44-26.58 157.20-25.04Q154.96-23.50 153.83-20.75Q152.70-18 152.68-14.40L152.68-14.40Q152.66-10.80 153.79-8.07Q154.92-5.34 157.18-3.79Q159.44-2.24 162.82-2.22Z M186.24 0L183.30 0L183.30-28.80L205.36-28.80L205.36 0L202.42 0L202.42-25.98L186.24-25.98L186.24 0Z M233.26 0L213.36 0L213.36-2.70L224.88-14.40L213.36-26.06L213.36-28.80L233.76-28.80L233.76-25.98L217.50-25.98L228.62-14.74L228.62-14.06L217.50-2.82L233.26-2.82L233.26 0Z"/></g>
</svg>
</g><g opacity="1" transform="rotate(0 57.4658 276.8898)">
<svg width="343.1535" height="50" x="57.4658" y="276.8898" version="1.1" preserveAspectRatio="none" viewBox="4 -35.2 274.52 40">
  <g transform="matrix(1 0 0 1 0 0)" class="companyName"><path id="id-D6z1nYkh7" d="M4 4.80L36 4.80L36-35.20L4-35.20ZM20-16.84L7.28-33.20L32.72-33.20ZM21.28-15.20L34-31.56L34 1.16ZM7.28 2.80L20-13.56L32.72 2.80ZM6-31.56L18.72-15.20L6 1.16Z M71-32.60C69.36-30.80 66.32-27.60 60.52-21.80C56.88-24.76 54.52-26.76 49.08-31.52L47.04-29.56C49.64-27.36 52.64-24.68 58.92-19.20L58.92-0.28L61.88-0.28L61.88-19.20L73.20-30.48Z M117.80-27.88L117.80-30.60L82.32-30.60L82.32-27.88L92.08-27.88C91.08-23.20 89.60-17.40 88.48-13.80L110.20-13.80C109.16-5.16 108.08-1.28 106.68-0.12C106.16 0.32 105.56 0.36 104.64 0.36C103.48 0.36 100.64 0.32 97.72 0.04C98.28 0.88 98.72 2.12 98.76 3C101.52 3.16 104.20 3.24 105.60 3.16C107.24 3.08 108.24 2.80 109.20 1.80C111.04 0.12 112.20-4.36 113.44-15.12C113.52-15.52 113.56-16.52 113.56-16.52L92.52-16.52C93.40-19.92 94.48-24.20 95.28-27.88Z M154.48-29.36L125.84-29.36L125.84-26.32L138.68-26.32L138.68 0.96L141.72 0.96L141.72-26.32L154.48-26.32Z M175.24-20.56C177.92-17.08 181.16-12.40 182.72-9.48L185.40-11.04C183.76-13.88 180.52-18.44 177.76-21.88ZM171.24-27.92L188.88-27.92L188.88-3.08L171.24-3.08ZM168.24-30.92L168.24-0.12L192-0.12L192-30.92Z M210.36-20.28L210.36-28.60L231.28-28.60L231.28-18.84L210.36-18.84ZM234.32-15.92L234.32-31.52L207.28-31.52L207.28-20.32C207.28-13.76 206.76-5.04 201.48 1.12C202.20 1.52 203.44 2.64 203.96 3.24C208.44-2.04 209.84-9.56 210.24-15.92L220.60-15.92C223.08-6.64 227.84 0 236.08 3C236.52 2.16 237.40 0.92 238.16 0.32C230.48-2.08 225.84-8 223.60-15.92Z M263.80-0.80C261.28-0.80 260.80-1.28 260.80-3.36L260.80-13.40L277.80-14.68L277.52-17.44L260.80-16.24L260.80-27.44C265.76-28.16 270.32-29.04 273.96-30.08L272.28-32.76C265.64-30.72 253.92-29.24 244.16-28.48C244.44-27.72 244.88-26.60 244.96-25.80C249-26.08 253.44-26.52 257.76-27.08L257.76-16L242.48-14.92L242.76-11.96L257.76-13.16L257.76-3.40C257.76 0.92 259.08 2.08 263.68 2.08L272.72 2.08C277.04 2.08 278.04 0.16 278.52-5.80C277.60-6 276.40-6.52 275.60-7.08C275.32-2 274.92-0.80 272.60-0.80Z"/></g>
</svg>
</g></svg></svg>